<?xml version="1.0" standalone="no"?>
<!DOCTYPE svg PUBLIC "-//W3C//DTD SVG 20010904//EN"
 "http://www.w3.org/TR/2001/REC-SVG-20010904/DTD/svg10.dtd">
<svg version="1.0" xmlns="http://www.w3.org/2000/svg"
 width="670.000000pt" height="338.000000pt" viewBox="0 0 670.000000 338.000000"
 preserveAspectRatio="xMidYMid meet">
<metadata>
Created by potrace 1.16, written by Peter Selinger 2001-2019
</metadata>
<g transform="translate(0.000000,338.000000) scale(0.100000,-0.100000)"
fill="#000000" stroke="none">
<path d="M1262 2025 c-236 -66 -315 -360 -143 -532 67 -67 121 -88 221 -88 73
0 93 4 142 28 l57 28 37 -20 c123 -66 282 -38 374 66 137 156 92 392 -95 491
-43 23 -62 27 -135 27 -72 0 -92 -4 -134 -26 l-49 -26 -56 28 c-70 36 -147 44
-219 24z m189 -56 c27 -12 49 -23 49 -26 0 -2 -13 -21 -29 -41 -55 -69 -76
-184 -51 -274 6 -20 26 -60 45 -88 l34 -50 -22 -14 c-36 -24 -115 -39 -167
-33 -96 11 -175 72 -218 166 -48 104 -17 243 70 316 80 68 193 85 289 44z"/>
<path d="M2280 1751 l0 -191 45 0 44 0 3 116 3 117 74 -117 74 -116 48 0 49 0
0 190 0 190 -50 0 -50 0 0 -117 0 -116 -74 114 -74 114 -46 3 -46 3 0 -190z"/>
<path d="M2790 1803 c0 -120 3 -142 20 -171 28 -46 76 -72 132 -72 129 0 172
72 166 276 l-3 99 -47 3 -48 3 0 -130 c0 -118 -2 -133 -20 -151 -11 -11 -27
-20 -36 -20 -19 0 -56 19 -66 34 -4 6 -8 68 -8 139 l0 127 -45 0 -45 0 0 -137z"/>
<path d="M3370 1929 c-33 -13 -78 -57 -98 -94 -8 -17 -15 -54 -15 -85 0 -61
17 -101 60 -142 37 -35 73 -48 137 -48 42 0 62 6 96 29 38 26 69 62 70 84 0 4
-23 7 -50 7 -36 0 -59 -6 -80 -22 -26 -19 -34 -20 -69 -10 -21 7 -46 23 -55
37 -20 31 -21 99 0 130 22 34 77 50 115 35 16 -7 29 -16 29 -21 0 -5 25 -9 55
-9 30 0 55 3 55 8 -1 21 -32 57 -70 83 -35 24 -53 29 -99 28 -31 0 -67 -5 -81
-10z"/>
<path d="M3780 1750 l0 -190 100 0 100 0 0 35 0 35 -55 0 -55 0 0 155 0 155
-45 0 -45 0 0 -190z"/>
<path d="M4130 1750 l0 -190 115 0 115 0 0 35 0 35 -70 0 -70 0 0 45 0 45 60
0 60 0 0 35 0 35 -60 0 -60 0 0 40 0 40 70 0 70 0 0 35 0 35 -115 0 -115 0 0
-190z"/>
<path d="M4530 1803 c0 -120 3 -142 20 -171 28 -46 76 -72 132 -72 129 0 172
72 166 276 l-3 99 -47 3 -48 3 0 -130 c0 -118 -2 -133 -20 -151 -11 -11 -27
-20 -36 -20 -19 0 -56 19 -66 34 -4 6 -8 68 -8 139 l0 127 -45 0 -45 0 0 -137z"/>
<path d="M5063 1920 c-39 -23 -53 -48 -53 -93 0 -46 29 -80 82 -97 81 -26 100
-39 96 -68 -4 -36 -50 -44 -70 -13 -10 17 -23 21 -60 21 -53 0 -62 -16 -32
-58 52 -75 207 -69 250 10 16 28 18 73 4 99 -12 22 -70 53 -117 64 -41 8 -66
41 -52 67 13 24 46 23 61 -2 10 -15 24 -20 60 -20 42 0 48 3 48 21 0 55 -51
89 -132 89 -35 0 -64 -7 -85 -20z"/>
</g>
</svg>
